<svg xmlns="http://www.w3.org/2000/svg" version="1.1" xmlns:xlink="http://www.w3.org/1999/xlink" xmlns:svgjs="http://svgjs.dev/svgjs" width="100%" height="100%" viewBox="0 0 1000 600"><rect width="1000" height="600" x="0" y="0" fill="#aa96da"/><g><rect width="333.3333333333333" height="333.3333333333333" rx="13.333333333333334" ry="13.333333333333334" y="171.61096258856603" fill="#c5fad5" transform="matrix(0.8367432709852463,0,0,0.836743270985246,0,16.948490314878512)" x="149.3887481689453"/><path d="M285.69879017013625 413.27763439474126L285.69879017013625 413.27763439474126Q281.6106488787999 413.27763439474126 278.65327007230127 410.75516423625714Q275.6524004010012 408.2761849425744 275.6524004010012 405.14484267687004L275.6524004010012 405.14484267687004L275.6524004010012 272.67166849165176Q275.6524004010012 269.2358901723372 278.65327007230127 267.19181952666895Q281.6106488787999 265.1477488810008 285.69879017013625 265.1477488810008L285.69879017013625 265.1477488810008Q289.7434405966712 265.1477488810008 292.57034680876546 267.19181952666895Q295.39725302085975 269.2358901723372 295.39725302085975 272.67166849165176L295.39725302085975 272.67166849165176L295.39725302085975 288.0239437665638Q298.83303134017433 281.7612592351549 304.791279817973 276.10744681096634Q310.74952829577177 270.49712525157923 318.882320013643 266.8873834730589Q327.01511173151425 263.27764169453843 337.36593755425946 263.27764169453843L337.36593755425946 263.27764169453843L348.32563548422496 263.27764169453843Q351.7614138035396 263.27764169453843 354.1099205028179 265.9305844474269Q356.45842720209623 268.6270180651169 356.45842720209623 272.67166849165176L356.45842720209623 272.67166849165176Q356.45842720209623 276.4553737293779 354.1099205028179 279.2387890766708Q351.7614138035396 282.065695288765 348.32563548422496 282.065695288765L348.32563548422496 282.065695288765L337.36593755425946 282.065695288765Q327.01511173151425 282.065695288765 317.4906123399966 287.54554425374783Q307.9226220836775 293.0253932187306 301.96437360587873 303.20225558227Q296.00612512808004 313.37911794580947 296.00612512808004 327.7745941950896L296.00612512808004 327.7745941950896L296.00612512808004 405.14484267687004Q296.00612512808004 408.2761849425744 293.0487463215814 410.75516423625714Q290.09136751508277 413.27763439474126 285.69879017013625 413.27763439474126Z " fill="#aa96da" transform="matrix(0.8367432709852463,0,0,0.836743270985246,0,16.948490314878512)"/><path d="M575.9582444448756 411.13416493483106L575.9582444448756 411.13416493483106Q571.9285218602445 411.13416493483106 569.0134033947666 408.64774036133525Q566.0554155400905 406.2041851770376 566.0554155400905 403.1175891547669L566.0554155400905 403.1175891547669L566.0554155400905 272.5374296570379Q566.0554155400905 269.1507479103798 569.0134033947666 267.1358866180642Q571.9285218602445 265.1210253257486 575.9582444448756 265.1210253257486L575.9582444448756 265.1210253257486Q579.9450976403086 265.1210253257486 582.7316079381919 267.1358866180642Q585.5181182360751 269.1507479103798 585.5181182360751 272.5374296570379L585.5181182360751 272.5374296570379L585.5181182360751 287.67032404400385Q588.9047999827333 281.49713199946245 594.7779063028872 275.924111403696Q600.6510126230411 270.3939601971277 608.6675884031051 266.8358008936768Q616.6841641831693 263.2776415902258 626.8870788123418 263.2776415902258L626.8870788123418 263.2776415902258L637.6901648902892 263.2776415902258Q641.0768466369473 263.2776415902258 643.3917936536503 265.89267433131624Q645.7067406703534 268.5505764616049 645.7067406703534 272.5374296570379L645.7067406703534 272.5374296570379Q645.7067406703534 276.2670665172816 643.3917936536503 279.01070742596664Q641.0768466369473 281.79721772384994 637.6901648902892 281.79721772384994L637.6901648902892 281.79721772384994L626.8870788123418 281.79721772384994Q616.6841641831693 281.79721772384994 607.2957679487627 287.1987607628236Q597.8645023251579 292.6003038017973 591.9913960050039 302.631740874177Q586.11828968485 312.6631779465567 586.11828968485 326.8529457711622L586.11828968485 326.8529457711622L586.11828968485 403.1175891547669Q586.11828968485 406.2041851770376 583.203171219372 408.64774036133525Q580.2880527538942 411.13416493483106 575.9582444448756 411.13416493483106ZM725.6581515250036 413.27763439474126L725.6581515250036 413.27763439474126Q709.2820448512898 413.27763439474126 696.0354035890448 405.2610586146771Q682.7458929376014 397.24448283461294 674.7293171575375 383.82636401557517Q666.7127413774733 370.4082451965374 666.7127413774733 355.2753508095714L666.7127413774733 355.2753508095714L666.7127413774733 272.8375153814253Q666.7127413774733 270.09387447274025 669.799337399744 267.60744989924444Q672.8859334220147 265.1210253257486 676.8727866174477 265.1210253257486L676.8727866174477 265.1210253257486Q680.9025092020788 265.1210253257486 683.8176276675565 267.60744989924444Q686.7756155222326 270.09387447274025 686.7756155222326 272.8375153814253L686.7756155222326 272.8375153814253L686.7756155222326 355.2753508095714Q686.7756155222326 365.43539604954566 692.0056810044136 374.3950983919703Q697.2357464865945 383.3548007343949 705.8953631046315 389.056429497756Q714.5549797226688 394.7580582611171 725.3580658006163 394.7580582611171L725.3580658006163 394.7580582611171Q736.4612376029509 394.7580582611171 745.07798483179 389.2279070545489Q753.7376014498273 383.6548864587823 758.8390587644135 374.56657594876316Q763.9405160789997 365.43539604954566 763.9405160789997 355.2753508095714L763.9405160789997 355.2753508095714L763.9405160789997 272.5374296570379Q763.9405160789997 269.4508336347672 767.0271121012704 267.307364174857Q770.1137081235411 265.1210253257486 774.1005613189739 265.1210253257486L774.1005613189739 265.1210253257486Q778.73045535238 265.1210253257486 781.3454880934705 267.307364174857Q784.003390223759 269.4508336347672 784.003390223759 272.5374296570379L784.003390223759 272.5374296570379L784.003390223759 355.2753508095714Q784.003390223759 371.00841664531225 776.1154226112897 384.12644973996265Q768.2274549988201 397.24448283461294 754.8093361797823 405.2610586146771Q741.3912173607443 413.27763439474126 725.6581515250036 413.27763439474126ZM853.4518007248494 413.27763439474126L853.4518007248494 413.27763439474126Q836.1325674887751 413.27763439474126 823.7861833996922 403.2461973223615Q811.4397993106095 393.2147602499818 811.4397993106095 372.5517146564476L811.4397993106095 372.5517146564476Q811.4397993106095 355.5754365339588 820.5709792098269 346.48712602393965Q829.6592897198461 337.35594612472215 845.8639188367672 333.79778682127125Q862.0685479536883 330.2824969070186 883.3746343851958 330.2824969070186L883.3746343851958 330.2824969070186L899.1077002209365 330.2824969070186L899.1077002209365 322.8660925757293Q899.1077002209365 312.9632636709442 895.5495409174855 303.27478171215006Q892.0342510032328 293.54343036415776 884.1462833907633 287.1987607628236Q876.2583157782938 280.8969605506876 862.7115887916614 280.8969605506876L862.7115887916614 280.8969605506876Q852.5086741624889 280.8969605506876 846.0353963935602 283.0404300105978Q839.5621186246312 285.183899470508 835.8324817643875 287.49884648721104Q832.145714293342 289.81379350391404 829.6592897198461 289.81379350391404L829.6592897198461 289.81379350391404Q825.9725222488007 289.81379350391404 823.7861833996922 286.1270260328685Q821.642713939782 282.440258561823 821.642713939782 279.01070742596664L821.642713939782 279.01070742596664Q821.642713939782 275.0238542305337 827.9873835411163 271.4656949270828Q834.2891837532522 267.9075356236319 844.0205351012444 265.59258860692887Q853.7518864492367 263.2776415902258 863.3117602404361 263.2776415902258L863.3117602404361 263.2776415902258Q883.9748058339705 263.2776415902258 896.1925817554586 271.7657806514702Q908.3674882877485 280.25391971271455 913.7690313267221 293.8435160885452Q919.170574365696 307.4331124643758 919.170574365696 322.8660925757293L919.170574365696 322.8660925757293L919.170574365696 403.1175891547669Q919.170574365696 406.50427090142506 916.5555416246054 408.819217918128Q913.9405088835151 411.13416493483106 909.310614850109 411.13416493483106L909.310614850109 411.13416493483106Q905.5809779898652 411.13416493483106 902.8373370811803 408.819217918128Q900.050826783297 406.50427090142506 900.050826783297 403.1175891547669L900.050826783297 403.1175891547669L900.050826783297 389.52799277893627Q892.0342510032328 398.4876951213609 880.5881240873125 405.9040994526502Q869.1848665605901 413.27763439474126 853.4518007248494 413.27763439474126ZM858.3817804826429 396.30135627225246L858.3817804826429 396.30135627225246Q868.5418257226172 396.30135627225246 877.8016137894292 391.0712907900716Q887.0614018562412 385.84122530789074 893.1059857331879 378.2533434198087Q899.1077002209365 370.70833092092477 899.1077002209365 363.8920980384103L899.1077002209365 363.8920980384103L899.1077002209365 344.1721790072366L886.1611446830789 344.1721790072366Q872.2714625828607 344.1721790072366 859.7536009369853 345.84408518596655Q847.278608680308 347.55886075389475 839.3906410678385 353.089011960463Q831.502673455369 358.66203255622946 831.502673455369 370.70833092092477L831.502673455369 370.70833092092477Q831.502673455369 383.9549721831698 839.3906410678385 390.1281642277111Q847.278608680308 396.30135627225246 858.3817804826429 396.30135627225246ZM996.0353891980756 413.27763439474126L996.0353891980756 413.27763439474126Q981.5455356490825 413.27763439474126 970.7424495711352 409.5908669236957Q959.9393634931878 405.9040994526502 953.7661714486464 400.80264213806396Q947.5929794041051 395.7011848234776 947.5929794041051 391.0712907900716L947.5929794041051 391.0712907900716Q947.5929794041051 388.9278213301614 948.4932365772675 386.91296003784583Q949.4363631396279 384.89809874553026 951.1082693183578 383.3548007343949Q952.823044886286 381.8115027232596 954.6664286218088 381.8115027232596L954.6664286218088 381.8115027232596Q958.0531103684668 381.8115027232596 962.2543105098907 385.3696620267105Q966.4126412621165 388.9278213301614 973.9576537610005 392.61458880120693Q981.5455356490825 396.30135627225246 995.4352177493006 396.30135627225246L995.4352177493006 396.30135627225246Q1013.0116673205641 396.30135627225246 1020.1279859274659 389.69947033572913Q1027.2014351451696 383.05471501000756 1027.2014351451696 374.3950983919703L1027.2014351451696 374.3950983919703Q1027.2014351451696 364.23505315199606 1021.799892106196 358.4905549994367Q1016.3983490672224 352.7889262360756 1007.6101242815905 349.5737220462103Q998.8218994959586 346.3156484671468 989.0905481479665 343.70061572605636Q979.3591967999741 341.0855829849659 970.5709720143423 336.8843828435419Q961.7827472287106 332.72605209131615 956.381204189737 325.30964776002685Q950.9796611507631 317.9361128179358 950.9796611507631 305.24677361526744L950.9796611507631 305.24677361526744Q950.9796611507631 295.3868140996805 955.9096409085566 285.6554627516883Q960.8396206663501 275.924111403696 971.514098576703 269.62231119156Q982.1457070978574 263.2776415902258 999.722156669121 263.2776415902258L999.722156669121 263.2776415902258Q1009.9250712982935 263.2776415902258 1019.4849450894931 265.46398043933425Q1029.0448188806924 267.60744989924444 1035.0894027576392 271.16560920269535Q1041.0911172453877 274.72376850614626 1041.0911172453877 278.4105359771918L1041.0911172453877 278.4105359771918Q1041.0911172453877 279.9538339883271 1040.0193825154327 282.440258561823Q1038.9476477854776 284.8838137461206 1037.1042640499547 286.8986750384362Q1035.2180109252338 288.91353633075175 1032.7744557409362 288.91353633075175L1032.7744557409362 288.91353633075175Q1030.2880311674403 288.91353633075175 1026.1297004152145 286.59858931404875Q1021.9713696629888 284.28364229734575 1015.49809189406 282.2687810050302Q1008.981944735933 280.25391971271455 1000.0651117827067 280.25391971271455L1000.0651117827067 280.25391971271455Q988.9190705911735 280.25391971271455 982.1457070978574 284.28364229734575Q975.3723436045411 288.2704954927787 972.2857475822705 293.6720385317524Q969.1991515599998 299.07358157072605 969.1991515599998 304.34651644210516L969.1991515599998 304.34651644210516Q969.1991515599998 313.3062187845298 974.7293027665683 317.9361128179358Q980.3023233623346 322.5660068513418 989.0905481479665 325.4811253168197Q997.8787729335982 328.3962437822975 1007.6101242815905 331.0541459125862Q1017.3414756295826 333.6691786536766 1026.1297004152145 338.2990726870826Q1034.9179252008464 342.92896672048863 1040.31946823982 351.2456282249403Q1045.7210112787936 359.60515911858994 1045.7210112787936 373.49484121880806L1045.7210112787936 373.49484121880806Q1045.7210112787936 391.67146223884646 1032.7744557409362 402.4745483167938Q1019.7850308138804 413.27763439474126 996.0353891980756 413.27763439474126Z " fill="#c5fad5" transform="matrix(0.8367432709852463,0,0,0.836743270985246,0,16.948490314878512)"/></g></svg>